<svg width="152" height="32" viewBox="0 0 152 32" fill="none" xmlns="http://www.w3.org/2000/svg">
<path fill-rule="evenodd" clip-rule="evenodd" d="M47.5463 11.0911C46.1097 11.0911 44.4825 11.8216 43.5444 16.2818C42.5013 21.2423 44.5817 21.5593 45.5901 21.5593C46.5071 21.5593 48.4595 21.0591 49.4304 16.3098C50.1117 12.9858 49.5699 11.0911 47.5463 11.0911ZM54.6849 16.3099C53.3715 23.8156 48.7065 24.7745 44.7584 24.7745C40.8604 24.7745 37.2702 22.0856 38.2854 16.2713C39.0793 11.7282 41.7726 7.52338 48.3226 7.84527C52.8904 8.06886 55.5769 11.203 54.6849 16.3099Z" fill="white"/>
<path fill-rule="evenodd" clip-rule="evenodd" d="M64.6322 24.1309L64.3868 24.3748C63.4082 24.5598 62.2593 24.7121 61.6358 24.7121C59.3273 24.7121 55.9412 24.3632 57.373 18.5306C58.343 14.5888 59.0377 11.6398 59.0377 11.6398L56.8986 11.7015L56.7148 11.4576L57.602 8.36399L57.8157 8.21172H59.8325L60.7197 4.26228L60.9324 4.04929C63.2264 3.52886 63.8374 3.37466 65.9466 2.76172L66.1294 2.94676L64.7842 8.2734L67.9029 8.21172L68.0241 8.42567C67.5969 9.71228 67.4737 10.0496 67.0773 11.4875L66.8338 11.7015L64.0212 11.6398C64.0212 11.6398 63.4496 14.0164 62.65 17.324C61.7859 20.8985 62.241 20.7183 63.1051 21.0585C63.8441 21.3515 64.8141 20.9766 65.3645 20.7935L65.5492 20.9486L64.6322 24.1309Z" fill="white"/>
<path fill-rule="evenodd" clip-rule="evenodd" d="M73.2161 21.0713C74.6642 21.2438 76.2423 20.7648 77.3114 19.8753C78.5334 18.8354 79.6342 16.693 79.6342 14.3665C79.6342 11.7933 77.984 11.4888 77.373 11.4888C76.4877 11.4888 75.8132 11.9475 75.1713 12.3754L73.2161 21.0713ZM75.6922 9.34541C76.488 8.79511 77.8014 7.8757 79.7875 7.8757C82.8446 7.8757 84.8922 10.1704 84.8922 14.0591C84.8922 16.2642 84.1282 18.8663 82.5386 20.7947C79.5123 24.4994 75.6922 24.4676 72.4514 24.4676L70.7126 31.7844L70.498 31.9366C69.7946 31.9366 69.122 31.9087 68.4196 31.9087C67.3794 31.9087 66.4624 31.9685 65.3327 32.0003L65.1797 31.7844C65.1797 31.7844 66.2555 28.5404 67.5959 22.9613C69.0036 17.1074 70.319 10.2494 70.4345 8.85294L70.6481 8.64091L75.875 7.7851L76.0579 7.99809L75.6922 9.34541Z" fill="white"/>
<path fill-rule="evenodd" clip-rule="evenodd" d="M88.8988 22.0193C90.6299 22.1002 93.1779 22.0492 95.1649 20.7028C97.4272 19.1396 98.4982 16.416 98.4982 14.4558C98.4982 11.6715 96.8152 10.5989 94.858 10.5989C93.3001 10.5989 92.2003 11.2735 91.2217 11.8855C91.2217 11.8855 89.0884 21.2676 88.8988 22.0193ZM85.1699 24.2528C85.373 23.3237 86.6912 17.8853 88.0364 11.7684C89.1902 6.5217 89.9927 3.24688 90.2746 0.801852L90.5181 0.5879L93.8503 0.00675964L94.0033 0.222639L93.1479 3.61985L91.7401 9.49679C93.0257 8.79229 94.2477 8.11863 96.204 8.11863C99.2293 8.11863 101.767 10.1705 101.767 14.0293C101.767 15.5896 101.278 18.5281 99.2293 20.8854C96.4792 24.0388 93.0863 24.2528 89.143 24.407H87.462L85.3229 24.4368L85.1699 24.2528Z" fill="white"/>
<path fill-rule="evenodd" clip-rule="evenodd" d="M115.895 10.7839C115.435 10.7839 114.978 10.754 114.518 10.754C113.509 10.754 111.522 10.8147 109.718 12.0387C106.509 14.2418 106.449 18.1932 106.449 18.3454C106.449 19.8151 107.244 22.1715 110.024 22.1715C110.849 22.1715 112.215 21.9768 113.692 20.671L115.895 10.7839ZM118.154 14.6704C117.085 19.385 116.872 20.5483 116.261 24.1922L116.047 24.4052L113.174 24.4678L113.02 24.2549L113.234 23.0299C112.715 23.4578 111.369 24.5902 108.77 24.5902C105.654 24.5902 103.117 22.3861 103.117 18.5601C103.117 16.143 104.279 13.5091 105.562 11.9777C108.404 8.64116 112.347 8.45612 115.16 8.45612L119.377 8.486L119.529 8.73176L118.154 14.6704Z" fill="white"/>
<path fill-rule="evenodd" clip-rule="evenodd" d="M133.291 24.2232L133.046 24.4053L129.929 24.4988L129.805 24.2839C130.254 22.2224 132.137 15.3181 132.159 13.1699C132.18 11.334 131.03 10.7201 129.592 10.7201C127.698 10.7201 126.445 11.6713 125.528 12.345C124.395 17.4885 124.029 19.1115 123.05 24.2232L122.838 24.4053L119.719 24.4988L119.567 24.2839C119.567 24.2839 120.494 20.5378 121.33 16.6414C121.988 13.5911 122.527 11.0767 122.776 8.9786L122.99 8.76272C124.427 8.58057 124.764 8.51889 126.229 8.21242L126.382 8.42541L125.955 9.98764C127.147 9.19062 128.676 8.12183 131.212 8.12183C132.22 8.12183 135.521 8.39457 135.521 12.1002C135.521 14.3149 133.59 22.0605 133.291 24.2232Z" fill="white"/>
<path fill-rule="evenodd" clip-rule="evenodd" d="M144.97 15.0931L149.708 24.1234L149.523 24.3673L146.131 24.4608L145.885 24.2757C145.096 22.1256 141.638 15.3687 141.638 15.3687C140.752 19.2565 140.568 20.174 139.804 24.215L139.589 24.3981L136.503 24.4608L136.381 24.2757C136.381 24.2757 138.012 17.488 139.423 11.2054C140.083 8.26785 141.107 3.61487 141.515 0.794936L141.731 0.61086L145.061 0.0615234L145.244 0.276439C144.629 2.3909 141.731 14.9389 141.731 14.9389C143.921 13.0162 147.567 9.18341 148.056 8.66298L148.393 8.47891H151.909L152 8.75454C151.132 9.44265 149.523 10.8989 148.943 11.4183L144.97 15.0931Z" fill="white"/>
<path fill-rule="evenodd" clip-rule="evenodd" d="M15.0793 0V5.46253C9.76293 5.47217 5.45593 9.79265 5.45593 15.1193C5.45593 20.4527 9.77255 24.7761 15.0967 24.7761C20.39 24.7761 24.7383 20.4922 24.7383 15.0836L30.1943 15.0875C30.1943 23.4702 23.4345 30.2405 15.0967 30.2405C6.7588 30.2405 0 23.4702 0 15.1193C0 6.77515 6.75111 0.00867374 15.0793 0Z" fill="white"/>
<path fill-rule="evenodd" clip-rule="evenodd" d="M15.1328 8.41162C18.8326 8.41162 21.83 11.4156 21.83 15.1193C21.83 18.824 18.8326 21.8251 15.1338 21.8251C11.4359 21.8251 8.4375 18.824 8.4375 15.1193C8.4375 11.4156 11.4359 8.41162 15.1328 8.41162Z" fill="white"/>
<path fill-rule="evenodd" clip-rule="evenodd" d="M23.6167 2.78027C25.7356 2.78027 27.4532 4.50346 27.4532 6.62563C27.4532 8.74684 25.7356 10.4681 23.6167 10.4681C21.4979 10.4681 19.7783 8.74684 19.7783 6.62563C19.7783 4.50346 21.4979 2.78027 23.6167 2.78027Z" fill="white"/>
</svg>
